<?xml version="1.0" encoding="utf-8"?>
<?xml-stylesheet type="text/xsl" href="rss1.xsl"?>
<rss version="2.0" xmlns:atom="http://www.w3.org/2005/Atom" xmlns:content="http://purl.org/rss/1.0/modules/content/" xmlns:dc="http://purl.org/dc/elements/1.1/" xmlns:media="http://search.yahoo.com/mrss/">
<channel>
 <title>Getty</title>
 <link>http://www.gettyimg.com/</link>
 <atom:link href="http://www.gettyimg.com/" rel="self" type="application/rss+xml" />

 
                <item>
                <title><![CDATA[【Cinema Center】SERIES - The Kids Tonight Show - Season 1 - 1080p Peacock WEB-DL DDP5.1 x264-LAZY]]></title>
                <link><![CDATA[https://sharemania.us/threads/the-kids-tonight-show-season-1-1080p-peacock-web-dl-ddp5-1-x264-lazy.240375/]]></link>
                <description><![CDATA[<article>
<blockquote class="messageText SelectQuoteContainer ugc baseHtml">
The Kids Tonight Show:<img src="http:////imgbin.broadcasthe.net/i/QnF3SJLk67tt07EfoUX9b.png" class="bbCodeImage LbImage" alt="[​IMG]" data-url="http:////imgbin.broadcasthe.net/i/QnF3SJLk67tt07EfoUX9b.png" style=""> <br>
<br>
<div class="bbCodeBlock bbCodeQuote">
<aside>
<blockquote class="quoteContainer"><div class="quote"><i><b>Synopsis:</b></i><br>
The only late-night talk show for kids, by kids. Kids doing a monologue, kids playing games, and kids interviewing the biggest stars in the world. It's everything you love about Jimmy Fallon, but the kids are in charge.</div><div class="quoteExpand">Click to expand...</div></blockquote>
</aside>
</div>
<div class="ToggleTriggerAnchor bbCodeSpoilerContainer">
<button type="button" class="button bbCodeSpoilerButton ToggleTrigger Tooltip JsOnly" data-target="> .SpoilerTarget"><span>Spoiler: <span class="SpoilerTitle">MediaInfo</span></span></button>
<div class="SpoilerTarget bbCodeSpoilerText">General<br>
Unique ID : 107420524380714366783271098983048766717 (0x50D070C1A2F6C0F569DA2036653364FD)<br>
Complete name : The.Kids.Tonight.Show.S01E01.Jimmy.Fallon.1080p.PCOK.WEB-DL.DDP5.1.x264-LAZY.mkv<br>
Format : Matroska<br>
Format version : Version 4<br>
File size : 973 MiB<br>
Duration : 17 min 30 s<br>
Overall bit rate : 7 772 kb/s<br>
Encoded date : UTC 2024-03-19 18:11:14<br>
Writing application : mkvmerge v83.0 ('Circle Of Friends') 64-bit<br>
Writing library : libebml v1.4.5 + libmatroska v1.7.1<br>
<br>
Video<br>
ID : 1<br>
Format : AVC<br>
Format/Info : Advanced Video Codec<br>
Format profile : High@L4<br>
Format settings : CABAC / 4 Ref Frames<br>
Format settings, CABAC : Yes<br>
Format settings, Reference frames : 4 frames<br>
Codec ID : V_MPEG4/ISO/AVC<br>
Duration : 17 min 30 s<br>
Bit rate : 7 814 kb/s<br>
Width : 1 920 pixels<br>
Height : 1 080 pixels<br>
Display aspect ratio : 16:9<br>
Frame rate mode : Constant<br>
Frame rate : 29.970 (30000/1001) FPS<br>
Original frame rate : 29.970 (29970/1000) FPS<br>
Color space : YUV<br>
Chroma subsampling : 4:2:0<br>
Bit depth : 8 bits<br>
Scan type : Progressive<br>
Bits/(Pixel*Frame) : 0.126<br>
Stream size : 949 MiB (97%)<br>
Writing library : x264 core 163 r3060 5db6aa6<br>
Encoding settings : cabac=1 / ref=4 / deblock=1:0:0 / analyse=0x3:0x113 / me=umh / subme=7 / psy=1 / psy_rd=0.00:0.00 / mixed_ref=1 / me_range=16 / chroma_me=1 / trellis=1 / 8x8dct=1 / cqm=0 / deadzone=21,11 / fast_pskip=0 / chroma_qp_offset=0 / threads=34 / lookahead_threads=5 / sliced_threads=0 / nr=0 / decimate=1 / interlaced=0 / bluray_compat=0 / constrained_intra=0 / bframes=16 / b_pyramid=2 / b_adapt=1 / b_bias=0 / direct=1 / weightb=1 / open_gop=0 / weightp=2 / keyint=60 / keyint_min=25 / scenecut=0 / intra_refresh=0 / rc_lookahead=40 / rc=2pass / mbtree=1 / bitrate=7814 / ratetol=1.0 / qcomp=0.60 / qpmin=10 / qpmax=51 / qpstep=4 / cplxblur=20.0 / qblur=0.5 / vbv_maxrate=7814 / vbv_bufsize=7814 / nal_hrd=none / filler=0 / ip_ratio=1.41 / aq=1:1.00<br>
Default : Yes<br>
Forced : No<br>
Color range : Limited<br>
Color primaries : BT.709<br>
Transfer characteristics : BT.709<br>
Matrix coefficients : BT.709<br>
<br>
Audio<br>
ID : 2<br>
Format : E-AC-3<br>
Format/Info : Enhanced AC-3<br>
Commercial name : Dolby Digital Plus<br>
Codec ID : A_EAC3<br>
Duration : 17 min 30 s<br>
Bit rate mode : Constant<br>
Bit rate : 192 kb/s<br>
Channel(s) : 6 channels<br>
Channel layout : L R C LFE Ls Rs<br>
Sampling rate : 48.0 kHz<br>
Frame rate : 31.250 FPS (1536 SPF)<br>
Compression mode : Lossy<br>
Stream size : 24.0 MiB (2%)<br>
Language : English<br>
Service kind : Complete Main<br>
Default : Yes<br>
Forced : No<br>
<br>
Text #1<br>
ID : 3<br>
Format : UTF-8<br>
Codec ID : S_TEXT/UTF8<br>
Codec ID/Info : UTF-8 Plain Text<br>
Duration : 17 min 19 s<br>
Bit rate : 118 b/s<br>
Count of elements : 510<br>
Stream size : 15.0 KiB (0%)<br>
Language : English<br>
Default : No<br>
Forced : No<br>
<br>
Text #2<br>
ID : 4<br>
Format : UTF-8<br>
Codec ID : S_TEXT/UTF8<br>
Codec ID/Info : UTF-8 Plain Text<br>
Duration : 17 min 19 s<br>
Bit rate : 119 b/s<br>
Count of elements : 517<br>
Stream size : 15.2 KiB (0%)<br>
Language : Spanish<br>
Default : No<br>
Forced : No<br>
<br>
Menu<br>
00:00:54.555 : en:Intro<br>
00:17:24.000 : en:Credits</div>
</div><br>
Screenshots:<br>
<img src="https://ptpimg.me/85jeb4.jpg" class="bbCodeImage LbImage" alt="[​IMG]" data-url="https://ptpimg.me/85jeb4.jpg" style=""> <br>
<div class="bbCodeBlock bbCodeVfcHH HiddenContent">
<div class="attribution type">Hidden Content:</div>
<blockquote>You must either reply or click 'Like' to see the hidden information contained here.</blockquote>
</div>
<div class="messageTextEndMarker">&nbsp;</div>
</blockquote>
</article>]]></description>
                <author><![CDATA[LazyRips]]></author>
                </item>

                </channel></rss>